<svg width="100" height="23" viewBox="0 0 100 23" fill="none" xmlns="http://www.w3.org/2000/svg">
<mask id="mask0_17_28" style="mask-type:luminance" maskUnits="userSpaceOnUse" x="14" y="0" width="86" height="23">
<path d="M99.2267 0H14.3411V23H99.2267V0Z" fill="white"/>
</mask>
<g mask="url(#mask0_17_28)">
<path d="M19.4819 0.0282299V1.21807C19.2735 1.19333 19.0638 1.18145 18.8541 1.18252C16.6347 1.18252 15.4622 2.75712 15.4622 5.73589V8.76068H17.5185V9.87628H15.4582V22.9321H14.3411V5.60102C14.3411 3.68557 14.8107 2.17579 15.6984 1.23585C16.4735 0.41822 17.5333 0 18.8501 0C19.0795 0 19.2841 0.00940996 19.4819 0.0282299Z" fill="#282828"/>
<path d="M73.2578 0.0741882H72.1407V22.9843H73.2578V0.0741882Z" fill="#282828"/>
<path d="M81.9218 3.08042C81.777 2.88985 81.6694 2.67072 81.6055 2.43579C81.5414 2.20086 81.5222 1.95481 81.5489 1.71196C81.5756 1.4691 81.6477 1.2343 81.761 1.02119C81.8744 0.808073 82.0266 0.62091 82.2089 0.470582C82.3912 0.320256 82.6 0.209764 82.823 0.145533C83.0461 0.0813033 83.279 0.0646168 83.5082 0.0964441C83.7374 0.128271 83.9583 0.207977 84.1582 0.330927C84.3579 0.453877 84.5327 0.617616 84.6721 0.81262L89.6152 7.50415C89.6528 7.55538 89.6953 7.60871 89.7369 7.65576C89.1315 7.76025 88.5607 8.02405 88.0769 8.4229C87.5932 8.82173 87.2121 9.34282 86.9687 9.9382C86.9373 9.88046 86.9019 9.82525 86.8629 9.773L81.9218 3.08042Z" fill="#282828"/>
<path d="M98.8552 20.0108C99.0008 20.201 99.109 20.42 99.1737 20.6549C99.2385 20.8899 99.2583 21.136 99.2321 21.3792C99.206 21.6223 99.1342 21.8576 99.0213 22.0711C98.9083 22.2846 98.7563 22.4724 98.5741 22.6231C98.3919 22.7739 98.1832 22.8849 97.96 22.9495C97.7368 23.0142 97.5038 23.0312 97.2743 22.9995C97.0448 22.968 96.8236 22.8885 96.6235 22.7656C96.4234 22.6426 96.2486 22.4789 96.1089 22.2838L91.1659 15.5922C91.0847 15.4803 90.9899 15.3801 90.884 15.2943C91.5035 15.194 92.0882 14.9271 92.5821 14.5193C93.076 14.1113 93.4625 13.5761 93.7046 12.9648C93.7604 13.0903 93.8295 13.2089 93.9101 13.3182L98.8552 20.0108Z" fill="#282828"/>
<path d="M89.8636 15.3196C89.7729 15.3994 89.6907 15.4894 89.6185 15.5882L84.6754 22.2798C84.3903 22.6654 83.9721 22.9156 83.5127 22.9753C83.0533 23.0349 82.5903 22.8991 82.2256 22.5976C81.8608 22.2963 81.6243 21.8539 81.5679 21.368C81.5116 20.8822 81.64 20.3925 81.925 20.0068L86.8681 13.3152C86.9165 13.2488 86.9604 13.179 86.9996 13.1061C87.2606 13.7015 87.6609 14.2166 88.1625 14.6028C88.6642 14.9889 89.2508 15.2335 89.8666 15.3132" fill="#282828"/>
<path d="M91.0043 7.69102C91.0617 7.63399 91.1149 7.57248 91.1636 7.507L96.1066 0.815474C96.2475 0.624827 96.4225 0.46539 96.6216 0.346266C96.8207 0.227143 97.0401 0.150664 97.2672 0.121198C97.4942 0.0917312 97.7246 0.109854 97.945 0.174532C98.1655 0.239208 98.3717 0.349174 98.552 0.498148C98.7322 0.647124 98.883 0.832189 98.9957 1.04278C99.1083 1.25337 99.1806 1.48537 99.2085 1.72551C99.2363 1.96566 99.2192 2.20926 99.158 2.44241C99.0969 2.67555 98.9929 2.89368 98.8521 3.08432L93.9089 9.77584C93.8371 9.87325 93.7751 9.97839 93.7241 10.0895C93.4995 9.47916 93.132 8.93912 92.6562 8.51998C92.1803 8.10083 91.6117 7.81632 91.0034 7.69311" fill="#282828"/>
<path d="M92.6889 11.5459C92.6891 12.0269 92.5544 12.4972 92.3018 12.8972C92.0493 13.2973 91.6902 13.6093 91.27 13.7934C90.8499 13.9777 90.3874 14.0259 89.9413 13.9323C89.4952 13.8386 89.0854 13.607 88.7636 13.2669C88.442 12.9269 88.2229 12.4935 88.1341 12.0218C88.0453 11.55 88.0908 11.0609 88.2647 10.6165C88.4388 10.172 88.7335 9.79216 89.1117 9.52488C89.4899 9.25762 89.9345 9.11496 90.3894 9.11496C90.9991 9.11496 91.5838 9.37104 92.015 9.82688C92.4462 10.2827 92.6886 10.9011 92.6889 11.5459Z" fill="#FF8500"/>
<path d="M27.2742 8.67084C23.4404 8.67084 20.5516 11.751 20.5516 15.836V15.8882C20.5516 19.943 23.4424 22.998 27.2742 22.998C31.1061 22.998 33.9968 19.9188 33.9968 15.8339V15.7879C33.9968 11.7332 31.1052 8.67816 27.2742 8.67816V8.67084ZM32.9272 15.8099V15.8622C32.9272 19.3124 30.508 21.9169 27.301 21.9169C24.1186 21.9169 21.6253 19.257 21.6253 15.8622V15.8099C21.6253 12.3596 24.0434 9.75507 27.2505 9.75507C30.4339 9.75507 32.9272 12.415 32.9272 15.8099Z" fill="#282828"/>
<path d="M65.7147 10.2255C64.7528 9.20814 63.347 8.69269 61.5369 8.69269C60.0213 8.69269 58.6392 9.05967 57.0555 9.88252L56.829 10.0007L57.2424 10.9835L57.4865 10.8591C58.9556 10.1115 60.1973 9.77796 61.5121 9.77796C64.4237 9.77796 65.9609 11.3055 65.9609 14.1954V14.9138C64.5271 14.446 63.0353 14.2073 61.5349 14.2059C57.9966 14.2059 55.709 15.9625 55.709 18.6788V18.7321C55.709 21.6429 58.2636 22.9676 60.6372 22.9676C63.2739 22.9676 65.086 21.6596 65.9609 20.3684V23.0021H67.0118V14.1682C67.0118 12.4881 66.563 11.1246 65.7128 10.2255H65.7147ZM65.9609 16.0513V17.5454C65.9609 19.6312 63.9353 21.8823 60.662 21.8823C58.8735 21.8823 56.7856 21.0511 56.7856 18.7059V18.6526C56.7856 16.1746 59.2522 15.2922 61.5605 15.2922C63.2017 15.2922 64.6016 15.5337 65.9609 16.0513Z" fill="#282828"/>
<path d="M45.718 9.77595C46.8846 9.76301 48.0241 10.148 48.9676 10.8738L48.9854 10.8874H50.585L50.4653 10.7692C49.5944 9.87947 48.1559 8.69485 45.7417 8.69485C42.0947 8.69485 39.1259 11.8922 39.1259 15.8213V15.8715C39.1259 19.8039 42.0838 23.0021 45.718 23.0021C47.5558 23.0021 49.108 22.3142 50.4634 20.8985L50.5791 20.7772H48.9893L48.9716 20.7909C48.042 21.5328 46.9062 21.9285 45.7417 21.9159C42.6869 21.9159 40.2055 19.1975 40.2055 15.8465V15.7963C40.2055 12.4213 42.6286 9.77805 45.7219 9.77805" fill="#282828"/>
</g>
<path d="M2 0L2 23" stroke="#F8D442" stroke-width="4"/>
</svg>
